<!-- SVG Sprite -->
<svg width="0" height="0" class="hidden">
  <symbol xmlns="http://www.w3.org/2000/svg" viewBox="0 0 24 23" id="invalid-name">
    <path fill="#919EAB" fill-rule="evenodd" d="M15 2c0 .536-.06.688 0 1-.304-.063-.451 0-1 0H1c-.549 0-.696-.063-1 0 .06-.312 0-.464 0-1V1C0 .464.06.312 0 0c.304.063.451 0 1 0h13c.549 0 .696.063 1 0-.06.312 0 .464 0 1v1zM1 10c-.536 0-.688-.063-1 0 .063-.312 0-.464 0-1V8c0-.536.063-.688 0-1 .312.063.464 0 1 0h22c.536 0 .688.063 1 0-.063.312 0 .464 0 1v1c0 .536-.063.688 0 1-.312-.063-.464 0-1 0H1zm0 13c-.536 0-.688-.063-1 0 .063-.312 0-.464 0-1v-1c0-.536.063-.688 0-1 .312.063.464 0 1 0h22c.536 0 .688.063 1 0-.063.312 0 .464 0 1v1c0 .536-.063.688 0 1-.312-.063-.464 0-1 0H1zm13-10c.549 0 .696.063 1 0-.06.312 0 .464 0 1v1c0 .536-.06.688 0 1-.304-.063-.451 0-1 0H1c-.549 0-.696-.063-1 0 .06-.312 0-.464 0-1v-1c0-.536.06-.688 0-1 .304.063.451 0 1 0h13z"></path>
  </symbol>

    <symbol xmlns="http://www.w3.org/2000/svg" viewBox="0 0 185 39" id="logo">
    <g fill="none" fill-rule="evenodd"><text fill="#454F5B" font-family="OpenSans" font-weight="700" font-size="23">
        <tspan x="87" y="32">FairRate</tspan>
      </text>
      <path fill="#4AD5F6" d="M27 6l27 33H0L27 6zm-4 27h8V22h-8v11z"></path>
      <path fill="#95CDB1" d="M54 0L40 16h27L54 0"></path>
      <path fill="#FFC48B" d="M69 18L55 34h27L69 18"></path>
    </g>
    </symbol>

    <symbol xmlns="http://www.w3.org/2000/svg" viewBox="0 0 14 14" id="phone-icon">
    <path fill="#919EAB" fill-rule="evenodd" d="M10.048 8.444c-.25 0-.47.055-.648.17-.529.339-.95.601-1.153.601-.112 0-.231-.1-.493-.326l-.044-.04c-.728-.632-.883-.795-1.165-1.09l-.072-.075c-.052-.052-.095-.1-.14-.143-.246-.255-.425-.438-1.057-1.154l-.028-.031c-.302-.342-.5-.565-.513-.728-.012-.16.127-.418.481-.899.43-.58.446-1.297.052-2.128-.314-.656-.827-1.285-1.28-1.837l-.04-.048C3.558.239 3.105 0 2.6 0c-.561 0-1.026.302-1.273.461-.02.012-.04.028-.06.04-.552.35-.954.831-1.105 1.32-.227.736-.378 1.69.708 3.676.938 1.718 1.79 2.871 3.141 4.26 1.273 1.304 1.838 1.725 3.102 2.64C8.521 13.415 9.873 14 10.82 14c.879 0 1.57 0 2.557-1.19 1.034-1.248.604-2.012-.016-2.652-.58-.597-2.231-1.714-3.313-1.714z" opacity=".7"></path>
    </symbol>

    <symbol xmlns="http://www.w3.org/2000/svg" viewBox="0 0 33 33" id="facebook">
    <path fill="#6B7C93" fill-rule="evenodd" d="M0 16.5C0 7.387 7.387 0 16.5 0S33 7.387 33 16.5 25.613 33 16.5 33 0 25.613 0 16.5zM17.32 26v-9.001h2.366L20 13.897h-2.68l.004-1.552c0-.81.073-1.243 1.18-1.243h1.48V8h-2.368c-2.843 0-3.844 1.505-3.844 4.035v1.862H12V17h1.772v9h3.548z"></path>
    </symbol>

    <symbol xmlns="http://www.w3.org/2000/svg" viewBox="0 0 33 33" id="linked-in">
    <path fill="#6B7C93" fill-rule="evenodd" d="M0 16.5C0 7.387 7.387 0 16.5 0S33 7.387 33 16.5 25.613 33 16.5 33 0 25.613 0 16.5zm25 1.337c0-3.3-1.616-4.837-3.771-4.837-1.74 0-2.517 1.045-2.953 1.775v.036h-.021l.021-.036v-1.523H15C15.044 14.261 15 24 15 24h3.276v-6.003c0-.322.022-.64.109-.87.237-.643.775-1.307 1.68-1.307 1.186 0 1.66.986 1.66 2.43V24H25v-6.163zM11.012 8C9.796 8 9 8.864 9 10c0 1.11.773 2 1.966 2h.023c1.24 0 2.011-.89 2.011-2-.024-1.136-.771-2-1.988-2zM9 23h3V13H9v10z"></path>
   </symbol>

    <symbol xmlns="http://www.w3.org/2000/svg" viewBox="0 0 33 33" id="twitter">
    <path fill="#6B7C93" fill-rule="evenodd" d="M0 16.5C0 7.387 7.387 0 16.5 0S33 7.387 33 16.5 25.613 33 16.5 33 0 25.613 0 16.5zm26-5.725a7.23 7.23 0 01-2.12.596 3.788 3.788 0 001.623-2.094 7.331 7.331 0 01-2.347.92A3.64 3.64 0 0020.461 9c-2.039 0-3.692 1.696-3.692 3.787 0 .297.032.586.095.863-3.068-.158-5.789-1.666-7.61-3.958-.318.559-.5 1.21-.5 1.904 0 1.315.653 2.474 1.643 3.153a3.622 3.622 0 01-1.673-.476v.048c0 1.835 1.274 3.366 2.962 3.714-.31.086-.636.133-.973.133-.238 0-.47-.024-.695-.07.47 1.505 1.833 2.6 3.448 2.63A7.29 7.29 0 018 22.297 10.247 10.247 0 0013.66 24c6.793 0 10.505-5.772 10.505-10.778l-.012-.49A7.481 7.481 0 0026 10.775z"></path>
  </symbol>
  
</svg>
















<!-- SVG References -->
    <svg>
      <use xlink:href="dist/images/sprite-icon.svg#invalid-name"></use>
    </svg>
    <svg>
      <use xlink:href="dist/images/sprite-icon.svg#logo"></use>
    </svg>
    <svg>
      <use xlink:href="dist/images/sprite-icon.svg#phone-icon"></use>
    </svg>
    <svg>
      <use xlink:href="dist/images/sprite-icon.svg#facebook"></use>
    </svg>
    <svg>
      <use xlink:href="dist/images/sprite-icon.svg#linked-in"></use>
    </svg>
    <svg>
      <use xlink:href="dist/images/sprite-icon.svg#twitter"></use>
    </svg>



